<svg xmlns="http://www.w3.org/2000/svg" width="914" height="914" fill="none" xmlns:v="https://vecta.io/nano"><mask id="A" maskUnits="userSpaceOnUse" x="0" y="0" width="914" height="914" mask-type="alpha"><circle cx="457" cy="457" r="457" fill="#d9d9d9"/></mask><g mask="url(#A)"><circle cx="457" cy="457" r="457" fill="url(#B)"/><circle cx="457" cy="457" r="457" fill="url(#C)"/><g style="mix-blend-mode:color-dodge"><path fill-rule="evenodd" d="M48.731 701.66l-7.538-3.69c-.598-.292-1.133-.834-1.49-1.507l-3.887-7.339c-3.592-6.783-5.408-8.97-7.685-10.94s-4.722-3.165-7.227-3.537-4.666-.131-9.597 2.48l-7.052 3.735c-.204.108-.489-.032-.637-.312-.071-.134-.101-.284-.082-.416l1.183-8.308c.094-.659.421-1.175.91-1.434l2.452-1.298c6.573-3.482 9.456-3.803 12.795-3.307s6.6 2.091 9.636 4.716 5.458 5.542 10.247 14.586l8.41 15.879c.148.28.104.594-.1.702-.098.052-.22.048-.339-.01zM38.8 755.629l1.183-8.309c.094-.659.421-1.174.91-1.433l5.335-2.825c4.93-2.612 6.344-4.265 7.444-6.545s1.484-4.976 1.135-7.966-1.139-5.721-4.731-12.504l-5.138-9.701c-.148-.28-.103-.595.1-.703.098-.052.22-.048.339.011l7.538 3.689c.598.293 1.133.835 1.49 1.508l1.787 3.373c4.79 9.043 5.842 12.685 6.308 16.672s-.046 7.58-1.513 10.621-3.352 5.245-9.925 8.727l-11.542 6.113c-.204.108-.489-.032-.637-.312a.7.7 0 0 1-.082-.416zm-49.566-26.735l7.538 3.69c.598.292 1.133.834 1.49 1.507l3.887 7.339c3.592 6.783 5.408 8.97 7.685 10.939s4.722 3.166 7.227 3.538 4.666.131 9.597-2.48l7.052-3.735c.204-.108.489.032.637.312.071.134.101.284.082.416l-1.183 8.308c-.094.659-.421 1.175-.91 1.433l-2.452 1.299c-6.573 3.482-9.456 3.803-12.795 3.307s-6.6-2.091-9.636-4.716-5.457-5.542-10.247-14.586l-8.41-15.879c-.148-.28-.104-.595.1-.702.098-.052.22-.048.339.01zm8.748-45.66c-.094.658-.421 1.174-.91 1.433l-5.335 2.825c-4.93 2.611-6.344 4.264-7.444 6.545s-1.484 4.976-1.135 7.966 1.139 5.721 4.731 12.504l5.138 9.701c.148.28.104.595-.1.703-.098.051-.22.048-.339-.011l-7.538-3.689c-.598-.293-1.133-.835-1.49-1.508l-1.787-3.373c-4.79-9.043-5.842-12.685-6.308-16.672s.046-7.58 1.513-10.621 3.352-5.245 9.925-8.727l11.542-6.113c.204-.108.489.032.637.312a.7.7 0 0 1 .082.416l-1.183 8.309zm34.847 10.671l-10.087-4.669c-.68-.333-1.348-.483-1.968-.468-.517.003-1.017.121-1.476.364l-17.547 9.293c-.204.108-.489-.031-.637-.312-.071-.134-.101-.284-.082-.416l1.187-8.311c.094-.658.421-1.173.91-1.432l13.984-7.406c4.072-2.157 9.779.636 12.746 6.238l3.401 6.422c.148.28.103.594-.1.702-.095.05-.213.048-.329-.005zm8.446 44.195l1.35-11.19c.107-.749.058-1.533-.121-2.302-.142-.639-.378-1.288-.713-1.919l-12.785-24.141c-.148-.28-.104-.594.1-.702.098-.052.22-.048.34.01l7.542 3.695c.597.293 1.133.835 1.489 1.507l10.189 19.238c2.967 5.602 2.071 11.892-2.001 14.049l-4.668 2.472c-.204.108-.489-.032-.637-.312-.069-.131-.099-.276-.083-.405zm-36.139-1.451l10.087 4.669c.68.333 1.348.483 1.968.468.517-.003 1.017-.121 1.476-.364l17.547-9.293c.204-.108.489.031.637.311.071.135.101.285.082.417l-1.187 8.311c-.094.658-.421 1.173-.91 1.432l-13.984 7.406c-4.072 2.157-9.779-.636-12.746-6.238l-3.401-6.422c-.148-.28-.104-.594.1-.702.095-.051.213-.049.329.005zm-8.442-44.189l-1.35 11.19a6.29 6.29 0 0 0 .121 2.302c.142.639.378 1.288.713 1.92l12.786 24.14c.148.28.104.595-.1.703-.098.051-.22.048-.34-.011l-7.541-3.695c-.597-.293-1.133-.835-1.489-1.507l-10.189-19.238c-2.967-5.602-2.071-11.892 2.001-14.048l4.668-2.472c.204-.108.489.031.637.311.069.131.099.276.083.405zm59.588-18.921l1.427-.756c.974-.516 2.337.15 3.045 1.486l1.214 2.292c.038.071.11.106.162.079-.232-2.402.101-4.416 1.001-6.04s2.146-2.858 3.739-3.702c1.718-.91 3.496-1.292 5.333-1.146s3.644.725 5.419 1.735 3.459 2.416 5.051 4.212 3.017 3.884 4.275 6.259 2.168 4.735 2.729 7.078.768 4.529.623 6.557-.659 3.836-1.539 5.421a8.96 8.96 0 0 1-3.71 3.644c-1.062.562-2.082.902-3.061 1.018s-1.91.094-2.796-.068-1.696-.408-2.43-.736-1.384-.688-1.95-1.077c-.078.041-.095.161-.038.268l8.624 16.283c.864 1.631.601 3.464-.587 4.093l-1.32.699c-1.188.629-2.852-.183-3.716-1.814l-22.081-41.692c-.864-1.631-.601-3.464.587-4.093zm25.043 7.397a16.57 16.57 0 0 0-2.368-3.394c-.914-1.008-1.897-1.808-2.95-2.398s-2.127-.939-3.224-1.047-2.161.111-3.192.657-1.81 1.303-2.338 2.271-.842 2.053-.946 3.256.005 2.465.326 3.787.813 2.612 1.478 3.867 1.454 2.386 2.368 3.394 1.897 1.808 2.95 2.398 2.127.94 3.225 1.047 2.161-.111 3.192-.657 1.81-1.303 2.337-2.271.843-2.053.946-3.256-.005-2.465-.326-3.788-.813-2.611-1.477-3.866zm5.18-23.404l1.61-.853c1.028-.545 2.467.158 3.214 1.569l1.285 2.426c.038.071.11.106.162.079-.372-2.213-.253-4.142.356-5.785s1.665-2.861 3.164-3.655c.344-.182.703-.315 1.079-.399.67-.151 1.466.332 1.9 1.151l2.344 4.427c.472.89.328 1.89-.32 2.233a.96.96 0 0 1-.222.085c-.512.128-.987.308-1.424.539-1.312.695-2.182 1.601-2.611 2.717s-.617 2.235-.563 3.355.247 2.165.581 3.136.62 1.68.858 2.129l7.586 14.324c.864 1.631.601 3.464-.587 4.093l-1.32.699c-1.188.63-2.852-.183-3.716-1.814l-13.963-26.363c-.864-1.632-.601-3.464.587-4.093zm19.024-10.076l1.319-.699c1.189-.629 2.852.183 3.716 1.814l13.963 26.363c.864 1.632.601 3.464-.587 4.094l-1.32.698c-1.188.63-2.852-.182-3.716-1.814l-13.962-26.363c-.864-1.631-.601-3.464.587-4.093zm-8.752-9.397c-.688-1.3-.952-2.61-.791-3.929s.758-2.252 1.788-2.798 2.141-.546 3.331.001 2.152 1.514 2.888 2.904.995 2.729.779 4.021-.84 2.209-1.87 2.755-2.138.515-3.32-.093-2.117-1.561-2.806-2.861zm33.935 5.502c-1.751-.547-3.071-.585-3.961-.114-.75.397-1.341 1.055-1.775 1.974s-.33 1.982.311 3.192c.522.986 1.199 1.546 2.03 1.68s1.782.118 2.854-.048l3.445-.577c1.225-.217 2.474-.219 3.748-.004s2.528.77 3.762 1.666 2.41 2.397 3.526 4.504c1.02 1.927 1.592 3.705 1.714 5.333s-.063 3.089-.558 4.384a9.63 9.63 0 0 1-2.19 3.399c-.966.971-2.026 1.762-3.182 2.374-1.75.927-3.548 1.42-5.396 1.481-.724.023-1.713-.176-2.967-.597-1.468-.494-2.628-2.254-2.591-3.932.004-.142.016-.282.037-.418l.168-1.093c.231-1.509 1.483-2.232 2.87-1.658.56.232 1.024.393 1.392.484 1.219.301 2.423.137 3.61-.491a4.89 4.89 0 0 0 1.158-.872c.366-.366.654-.805.862-1.318s.306-1.066.291-1.66-.189-1.206-.521-1.833c-.593-1.121-1.329-1.793-2.208-2.017s-1.859-.263-2.943-.119-2.227.347-3.427.61-2.426.309-3.677.139-2.48-.681-3.691-1.532-2.362-2.307-3.454-4.369c-.949-1.793-1.517-3.487-1.701-5.082s-.081-3.042.311-4.34 1.028-2.439 1.908-3.421a10.79 10.79 0 0 1 3.006-2.367c1.5-.794 3.18-1.211 5.039-1.249.674-.013 1.53.169 2.567.546h.001c1.467.533 2.597 2.315 2.525 3.981a3.12 3.12 0 0 1-.044.404l-.221 1.276c-.239 1.377-1.345 2.086-2.628 1.684zm8.882-14.147l1.039-.55c1.188-.63 2.852.183 3.716 1.814l1.106 2.089c-.214-1.839-.127-3.62.352-5.396s1.658-3.159 3.531-4.151c3.531-1.87 6.93-1.116 10.199 2.26-.281-2.491-.067-4.541.641-6.15s1.906-2.861 3.592-3.754c1.5-.794 2.955-1.106 4.367-.935s2.767.716 4.072 1.631 2.544 2.14 3.715 3.672 2.267 3.261 3.288 5.188l8.62 16.274c.864 1.632.6 3.465-.587 4.093l-1.32.7c-1.189.629-2.852-.184-3.716-1.815l-8.121-15.333a24.06 24.06 0 0 0-1.7-2.758c-.613-.852-1.259-1.543-1.939-2.072s-1.392-.855-2.137-.978-1.538.04-2.382.487c-.876.464-1.493 1.092-1.852 1.885s-.528 1.686-.503 2.677.218 2.037.582 3.135.816 2.165 1.362 3.196l7.693 14.526c.864 1.631.601 3.464-.588 4.094l-1.318.698c-1.189.63-2.854-.182-3.718-1.813l-8.619-16.275c-1.068-2.016-2.212-3.462-3.436-4.335s-2.52-.947-3.896-.218c-.936.496-1.607 1.138-2.01 1.925s-.613 1.674-.631 2.659.14 2.021.475 3.106a18.73 18.73 0 0 0 1.357 3.242l7.764 14.66c.864 1.631.602 3.464-.587 4.094l-1.319.698c-1.189.63-2.852-.182-3.716-1.814l-13.963-26.363c-.864-1.631-.601-3.464.587-4.093zm41.798-22.137l1.318-.699c1.189-.629 2.853.182 3.717 1.814l13.963 26.363c.864 1.631.6 3.464-.588 4.094l-1.319.698c-1.189.63-2.853-.182-3.717-1.813l-13.963-26.364c-.864-1.631-.6-3.464.589-4.093zm-8.754-9.397c-.688-1.3-.951-2.61-.79-3.929s.757-2.252 1.788-2.798 2.142-.546 3.331.001 2.152 1.514 2.888 2.904.996 2.729.78 4.02-.84 2.21-1.871 2.756-2.137.515-3.319-.093-2.118-1.561-2.807-2.861zm37.502 4.305c-.362-.127-.669-.214-.92-.264-1.028-.201-1.916-.104-2.665.293-1.031.546-1.809 1.303-2.337 2.271s-.843 2.053-.946 3.256.006 2.465.325 3.787.814 2.612 1.478 3.866a16.59 16.59 0 0 0 2.368 3.395c.914 1.008 1.897 1.808 2.95 2.398s2.127.939 3.225 1.047 2.161-.112 3.192-.658c.874-.463 1.55-1.151 2.028-2.064.096-.184.185-.413.267-.686h0c.417-1.377 1.76-1.858 3.102-1.11l1.554.865c1.366.762 2.233 2.58 1.934 4.06-.036.182-.091.354-.16.513-.425.971-.918 1.835-1.477 2.59s-1.142 1.394-1.747 1.915-1.156.914-1.655 1.178c-1.688.894-3.495 1.334-5.421 1.321s-3.829-.468-5.706-1.368-3.686-2.223-5.43-3.968-3.293-3.895-4.646-6.45-2.261-5.044-2.725-7.467-.54-4.664-.231-6.721 1.002-3.889 2.074-5.49a11.25 11.25 0 0 1 4.139-3.741c1.437-.761 3.089-1.134 4.956-1.119.712.006 1.649.194 2.808.566 1.471.47 2.646 2.217 2.63 3.9a3.41 3.41 0 0 1-.024.368l-.209 1.707c-.184 1.502-1.363 2.284-2.731 1.81z" fill="#969696"/></g><g style="mix-blend-mode:color-dodge"><path fill-rule="evenodd" d="M812.277 297.569l-6.557-4.24c-.52-.336-1.013-.905-1.37-1.58l-3.903-7.368c-3.606-6.81-5.311-9.069-7.373-11.165s-4.19-3.47-6.286-4.065-3.853-.572-7.659 1.444l-5.445 2.883c-.157.084-.405-.077-.554-.358-.071-.135-.11-.28-.107-.404l.176-7.806c.014-.619.234-1.079.612-1.279l1.893-1.003c5.075-2.688 7.416-2.717 10.212-1.925s5.631 2.627 8.381 5.42 5.023 5.807 9.832 14.886l8.443 15.942c.149.282.142.577-.015.66-.075.04-.176.025-.28-.042zm-2.995 50.489l.177-7.806c.014-.619.233-1.079.611-1.279l4.119-2.181c3.806-2.016 4.811-3.456 5.497-5.525s.744-4.6.17-7.484-1.486-5.562-5.093-12.372l-5.158-9.74c-.149-.281-.142-.577.015-.66.075-.04.176-.024.28.043l6.557 4.24c.52.336 1.013.904 1.37 1.579l1.794 3.387c4.809 9.08 6.024 12.652 6.79 16.497s.689 7.221-.226 9.978-2.255 4.678-7.33 7.366l-8.912 4.72c-.157.083-.405-.077-.554-.358-.071-.136-.11-.281-.107-.405zm-43.351-30.237l6.557 4.24c.52.336 1.013.904 1.37 1.579l3.903 7.369c3.607 6.809 5.311 9.068 7.373 11.164s4.19 3.47 6.287 4.065 3.852.572 7.658-1.444l5.445-2.883c.157-.084.405.077.554.358a.85.85 0 0 1 .107.404l-.176 7.807c-.014.619-.234 1.078-.612 1.278l-1.893 1.003c-5.075 2.688-7.416 2.717-10.212 1.925s-5.631-2.626-8.381-5.42-5.023-5.806-9.831-14.886l-8.444-15.942c-.149-.281-.142-.577.015-.66.075-.04.176-.025.28.043zm2.819-42.684c-.014.619-.234 1.079-.612 1.279l-4.118 2.181c-3.807 2.016-4.812 3.456-5.498 5.525s-.744 4.6-.169 7.484 1.485 5.563 5.092 12.372l5.158 9.74c.149.281.143.577-.015.66-.075.04-.176.025-.28-.043l-6.557-4.24c-.519-.336-1.012-.904-1.37-1.579l-1.794-3.387c-4.808-9.079-6.024-12.652-6.79-16.496s-.689-7.221.226-9.979 2.255-4.678 7.33-7.366l8.912-4.72c.157-.083.405.077.554.359.072.135.11.28.107.404l-.176 7.806zm29.698 13.514l-8.748-5.418c-.591-.382-1.156-.589-1.665-.635-.425-.046-.825.018-1.18.206l-13.547 7.175c-.157.083-.406-.077-.555-.358-.071-.136-.11-.281-.107-.405l.18-7.808c.014-.619.234-1.078.611-1.278l10.796-5.718c3.144-1.665 8.108 1.545 11.087 7.169l3.414 6.447c.149.281.142.577-.015.66-.073.039-.17.026-.271-.037zm11.189 42.937l.038-10.537c.016-.704-.1-1.456-.321-2.206-.178-.623-.435-1.264-.77-1.898l-12.837-24.237c-.149-.281-.142-.576.015-.659.075-.04.176-.025.28.042l6.561 4.246c.519.336 1.012.904 1.369 1.579l10.23 19.314c2.979 5.624 2.845 11.534-.299 13.199l-3.604 1.909c-.157.083-.405-.077-.554-.359-.07-.131-.108-.272-.108-.393zm-29.877-4.85l8.748 5.418c.592.382 1.156.589 1.665.635.425.046.825-.018 1.18-.206l13.547-7.175c.158-.083.406.077.555.359.071.135.11.28.107.404l-.18 7.808c-.014.619-.234 1.078-.611 1.278l-10.796 5.718c-3.144 1.665-8.108-1.544-11.086-7.169l-3.415-6.447c-.149-.281-.142-.577.015-.66.073-.039.17-.026.271.037zm-11.186-42.93l-.037 10.537c-.016.704.1 1.456.32 2.206.179.622.435 1.263.771 1.897l12.837 24.237c.149.281.142.577-.015.66-.076.04-.177.025-.281-.043l-6.56-4.245c-.519-.336-1.012-.904-1.369-1.579l-10.23-19.314c-2.979-5.625-2.845-11.534.299-13.2l3.604-1.908c.157-.083.405.077.554.358.069.131.108.272.107.394zm47.218-12.32l1.102-.583c.752-.398 1.938.367 2.648 1.709l1.219 2.301c.038.071.101.112.141.091-.422-2.313-.34-4.2.244-5.662s1.492-2.518 2.722-3.17c1.326-.702 2.752-.896 4.279-.58s3.067 1.04 4.625 2.174 3.078 2.633 4.561 4.499 2.855 3.991 4.118 6.376 2.237 4.721 2.924 7.008 1.067 4.39 1.141 6.31-.174 3.593-.746 5.019-1.474 2.466-2.704 3.118c-.82.434-1.627.659-2.42.677a6.98 6.98 0 0 1-2.308-.334c-.745-.24-1.435-.551-2.07-.935s-1.205-.788-1.708-1.213c-.06.032-.063.145-.006.252l8.658 16.347c.868 1.638.827 3.36-.09 3.846l-1.019.539c-.918.486-2.365-.448-3.232-2.086l-22.169-41.857c-.868-1.638-.827-3.36.09-3.846zm21.317 9.454c-.667-1.26-1.425-2.414-2.274-3.463s-1.734-1.905-2.657-2.568-1.841-1.1-2.754-1.308-1.767-.101-2.563.321-1.365 1.068-1.706 1.94-.496 1.876-.466 3.013.241 2.35.632 3.641.919 2.567 1.587 3.827 1.425 2.414 2.274 3.463 1.734 1.905 2.657 2.569 1.841 1.099 2.754 1.307 1.767.101 2.563-.321 1.365-1.068 1.706-1.94.496-1.876.466-3.013-.241-2.35-.632-3.641-.919-2.567-1.587-3.827zm2.018-21.812l1.243-.658c.793-.421 2.045.387 2.795 1.803l1.29 2.436c.038.071.101.112.141.091-.519-2.145-.606-3.972-.262-5.48s1.095-2.567 2.253-3.18c.265-.141.548-.233.849-.278.537-.078 1.238.458 1.674 1.281l2.354 4.444c.473.893.451 1.833-.05 2.098-.053.028-.112.048-.174.059-.409.073-.783.199-1.12.378-1.013.536-1.643 1.316-1.888 2.339s-.293 2.071-.142 3.144.411 2.087.779 3.044.671 1.662.91 2.112l7.617 14.381c.867 1.638.826 3.36-.091 3.846l-1.019.539c-.917.486-2.364-.448-3.232-2.086l-14.018-26.468c-.868-1.638-.827-3.359.091-3.845zm14.687-7.779l1.019-.54c.918-.486 2.364.448 3.232 2.086l14.018 26.468c.868 1.638.827 3.36-.09 3.845l-1.019.54c-.918.486-2.365-.448-3.232-2.086l-14.018-26.468c-.868-1.638-.827-3.359.09-3.845zm-8.103-9.797c-.691-1.305-1.034-2.578-1.028-3.82s.408-2.074 1.204-2.496 1.709-.315 2.74.32 1.916 1.65 2.655 3.045 1.081 2.698 1.027 3.908-.479 2.025-1.275 2.447-1.709.286-2.74-.407-1.892-1.692-2.583-2.997zm28.452 8.5c-1.493-.689-2.583-.852-3.27-.488-.579.306-1.003.877-1.271 1.71s-.082 1.858.562 3.073c.524.99 1.135 1.589 1.831 1.796s1.478.283 2.344.228 1.793-.128 2.78-.219 2.014.028 3.083.355 2.154.977 3.256 1.949 2.213 2.516 3.333 4.631c1.024 1.935 1.665 3.684 1.922 5.248s.244 2.939-.038 4.126-.775 2.196-1.476 3.029-1.499 1.485-2.391 1.958a7.71 7.71 0 0 1-4.299.893c-.593-.046-1.426-.331-2.498-.853-1.256-.611-2.379-2.4-2.509-3.996a3.52 3.52 0 0 1-.01-.395l.033-1.026c.046-1.416 1.007-1.985 2.203-1.304.483.274.88.472 1.192.594 1.032.404 2.007.363 2.923-.122.314-.166.604-.406.87-.72s.46-.705.583-1.173.149-.987.08-1.555-.271-1.167-.605-1.797c-.596-1.125-1.266-1.836-2.01-2.134s-1.555-.429-2.433-.396-1.799.117-2.762.252-1.967.062-3.012-.22-2.106-.886-3.184-1.813-2.165-2.426-3.261-4.496c-.954-1.8-1.583-3.469-1.888-5.008s-.359-2.907-.16-4.107.612-2.226 1.242-3.078 1.378-1.508 2.247-1.968c1.157-.613 2.499-.848 4.026-.706.553.051 1.275.307 2.165.766h0c1.259.649 2.36 2.456 2.46 4.037.008.131.009.259.003.381l-.06 1.195c-.065 1.29-.906 1.859-2.001 1.353zm5.952-12.633l.802-.424c.917-.486 2.364.447 3.231 2.085l1.111 2.097c-.352-1.773-.452-3.463-.227-5.109s1.061-2.852 2.507-3.618c2.726-1.444 5.595-.399 8.609 3.133-.47-2.402-.491-4.335-.063-5.801s1.294-2.544 2.596-3.233c1.158-.613 2.326-.771 3.503-.473s2.346.948 3.508 1.946 2.299 2.283 3.409 3.855 2.179 3.326 3.204 5.261l8.653 16.339c.868 1.638.827 3.36-.09 3.846l-1.019.539c-.918.486-2.364-.448-3.232-2.086l-8.153-15.394a31.37 31.37 0 0 0-1.664-2.792c-.586-.871-1.183-1.591-1.794-2.161s-1.228-.949-1.852-1.137-1.262-.109-1.914.236c-.675.358-1.123.898-1.342 1.619s-.273 1.556-.158 2.503.375 1.962.78 3.045.879 2.141 1.427 3.176l7.724 14.584c.868 1.638.827 3.36-.091 3.846l-1.018.539c-.918.486-2.365-.447-3.233-2.085l-8.653-16.339c-1.073-2.025-2.153-3.513-3.244-4.462s-2.164-1.144-3.226-.582c-.723.383-1.214.931-1.47 1.643s-.343 1.536-.264 2.473.309 1.94.689 3.007.855 2.139 1.427 3.219l7.796 14.719c.867 1.638.827 3.36-.091 3.846l-1.018.539c-.918.486-2.365-.448-3.232-2.085l-14.019-26.468c-.867-1.638-.826-3.36.091-3.846zm32.27-17.091l1.018-.539c.918-.486 2.365.447 3.233 2.085l14.018 26.468c.868 1.638.827 3.36-.091 3.846l-1.018.539c-.918.486-2.366-.447-3.233-2.085l-14.018-26.468c-.868-1.638-.827-3.36.091-3.846zm-8.104-9.796c-.691-1.305-1.033-2.579-1.027-3.821s.407-2.074 1.203-2.496 1.71-.315 2.741.321 1.916 1.65 2.655 3.045 1.081 2.697 1.027 3.907-.479 2.025-1.275 2.447-1.709.286-2.74-.407-1.893-1.691-2.584-2.996zm31.272 7.7c-.31-.155-.571-.268-.782-.339-.865-.291-1.587-.283-2.165.023-.796.422-1.364 1.068-1.706 1.941s-.496 1.876-.466 3.012.241 2.35.632 3.642a21.41 21.41 0 0 0 1.586 3.827c.668 1.259 1.425 2.414 2.274 3.462s1.735 1.905 2.658 2.569 1.84 1.099 2.754 1.307 1.768.101 2.564-.321c.674-.357 1.165-.948 1.47-1.772.061-.167.113-.376.154-.629v.001c.211-1.273 1.27-1.603 2.447-.761l1.361.973c1.198.858 2.085 2.674 1.981 4.056a2.34 2.34 0 0 1-.083.473c-.256.885-.579 1.661-.967 2.327s-.805 1.219-1.253 1.658-.864.76-1.249.964c-1.304.69-2.748.937-4.334.74s-3.196-.814-4.827-1.852-3.246-2.473-4.849-4.303-3.083-4.028-4.441-6.593-2.345-5.025-2.959-7.379-.892-4.498-.835-6.429.452-3.61 1.18-5.034 1.744-2.479 3.047-3.169c1.109-.587 2.434-.785 3.971-.591.587.074 1.375.343 2.365.809 1.255.589 2.39 2.367 2.538 3.97.011.119.016.235.016.348l-.008 1.607c-.008 1.414-.903 2.046-2.074 1.463z" fill="#969696"/></g><g style="mix-blend-mode:color-dodge"><path fill-rule="evenodd" d="M325.702 515.544c-1.432-2.609-5.346-1.982-5.891.945l-8.218 44.158c-.97 5.212 4.509 9.239 9.194 6.758l25.525-13.52 10.91 19.874c1.433 2.609 5.347 1.981 5.891-.945l8.219-44.158c.969-5.212-4.509-9.239-9.194-6.758l-25.694 13.608-10.742-19.962zm211.88-61.372l1.818 3.433-7.371 3.904-21.938-41.421 7.485-3.965 8.666 16.363c.197-2.668 2.313-6.133 6.485-8.343 8.228-4.358 16.335-.52 20.759 7.833 4.515 8.524 2.621 17.659-5.38 21.897-3.886 2.058-7.766 1.916-10.524.299zm5.604-6.411c3.886-2.058 5.457-6.553 2.729-11.702s-7.297-6.318-11.183-4.26c-3.828 2.027-5.543 6.525-2.816 11.674 2.697 5.092 7.442 6.315 11.27 4.288zm-47.735 23.305c2.333 4.405 8.141 6.53 14.142 3.352 4.17-2.209 5.826-5.576 6.072-8.564.576 1.087 1.509 2.571 2.074 3.224l6.972-3.692c-.687-.882-1.918-2.794-2.706-4.282l-7.333-13.845c-3-5.664-8.981-8.943-17.895-4.222-7.543 3.995-9.025 11.007-7.148 15.654l7.5-2.14c-1.074-2.582-.367-5.667 2.947-7.422 3.2-1.695 5.622-.853 6.682 1.149.515.973.426 2.046-1.053 3.122l-6.369 4.692c-4.322 3.168-6.552 7.939-3.885 12.974zm12.741-3.159c-2.457 1.301-4.506.335-5.384-1.324-1.152-2.174-.185-4.078 1.607-5.393l5.828-4.332.667 1.258c2.636 4.978.482 8.096-2.718 9.791zm-108.106 53.447c2.039 3.023 7.862 6.972 16.32 2.492 7.371-3.904 8.43-10.472 6.006-15.049-2.182-4.119-6.77-6.011-12.919-4.22l-4.455 1.261c-1.694.531-3.177.217-3.904-1.156-.849-1.602.115-3.651 2.115-4.71 3.2-1.695 5.521-.214 6.629 1.324l5.585-4.789c-1.949-2.851-7.331-6.52-15.331-2.283-6.058 3.208-8.303 9.745-5.636 14.78 2.091 3.947 6.274 5.907 12.34 4.233l4.169-1.109c2.413-.692 3.816-.116 4.483 1.142.788 1.488.284 3.439-2.23 4.771-3.314 1.755-6.063.573-7.415-1.567l-5.757 4.88zm51.068-17.01l7.257-3.844c-.629-.912-1.831-2.766-2.983-4.941l-12.211-23.056-7.601 4.026 8.666 16.362c1.728 3.261.997 6.579-2.374 8.364-3.543 1.876-6.477.207-8.143-2.94l-8.606-16.248-7.6 4.025 9.424 17.793c3.242 6.122 9.764 9.041 16.564 5.44 2.971-1.574 5.624-4.444 5.772-7.893.606 1.144 1.417 2.4 1.835 2.912zm21.227-14.76l7.212 13.616-7.6 4.025-20.665-39.018 7.371-3.904 1.818 3.433c.106-2.84 2.249-6.393 6.477-8.632 8.229-4.358 16.305-.577 20.729 7.776 4.514 8.525 2.534 17.632-5.409 21.839-3.886 2.058-7.562 2.027-9.933.865zm5.127-7.037c3.886-2.059 5.426-6.61 2.759-11.645-2.636-4.977-7.267-6.261-11.153-4.203s-5.482 6.64-2.846 11.617 7.355 6.288 11.24 4.231zm83.736-46.328c2.334 4.406 8.142 6.531 14.142 3.353 4.171-2.209 5.827-5.577 6.073-8.565.576 1.087 1.509 2.571 2.074 3.224l6.971-3.692c-.685-.882-1.917-2.794-2.705-4.281l-7.333-13.846c-3-5.664-8.981-8.943-17.895-4.221-7.543 3.995-9.025 11.006-7.149 15.654l7.5-2.141c-1.074-2.581-.366-5.667 2.947-7.422 3.201-1.695 5.623-.853 6.683 1.15.515.972.425 2.046-1.054 3.122l-6.368 4.692c-4.322 3.168-6.552 7.939-3.886 12.973zm12.743-3.159c-2.458 1.302-4.507.336-5.385-1.323-1.152-2.174-.185-4.079 1.607-5.394l5.828-4.332.666 1.259c2.637 4.977.483 8.096-2.716 9.79zm33.605-10.472c-8.457 4.479-14.281.531-16.32-2.492l5.757-4.881c1.353 2.141 4.101 3.323 7.415 1.568 2.515-1.332 3.018-3.283 2.23-4.771-.666-1.259-2.069-1.835-4.483-1.142l-4.169 1.109c-6.066 1.674-10.249-.286-12.34-4.234-2.666-5.034-.422-11.571 5.636-14.779 8-4.237 13.382-.568 15.331 2.283l-5.584 4.789c-1.108-1.538-3.429-3.019-6.63-1.324-2 1.059-2.963 3.108-2.115 4.71.728 1.373 2.21 1.687 3.904 1.156l4.455-1.261c6.149-1.792 10.736.101 12.918 4.221 2.424 4.576 1.367 11.144-6.005 15.048zm12.851-30.03c-1.192-2.665-.596-6.79 3.347-8.879 4.343-2.3 7.626-.522 9.225 2.221l-12.572 6.658zm17.194.271c.419 3.002-.585 5.805-4.128 7.681-3.772 1.998-8.339.973-10.479-2.655l20.114-10.653c-.015-.028-.056-.122-.117-.263-.19-.435-.577-1.323-1.012-2.143-4.787-9.04-12.926-11.835-21.612-7.235-7.2 3.813-10.738 13.16-5.981 22.142 5.03 9.497 14.769 11.446 22.484 7.359 6.914-3.662 9.22-10.084 8.074-15.704l-7.343 1.471z" fill="#969696"/></g></g><defs><linearGradient id="B" x1="119.5" y1="763" x2="825.5" y2="190" gradientUnits="userSpaceOnUse"><stop stop-color="#01a6dc"/><stop offset=".557" stop-color="#8801e4"/><stop offset="1" stop-color="#f5cbe1"/></linearGradient><radialGradient id="C" cx="0" cy="0" r="1" gradientUnits="userSpaceOnUse" gradientTransform="translate(457 457) rotate(90) scale(457)"><stop stop-color="#fff" stop-opacity="0"/><stop offset=".964" stop-color="#fff" stop-opacity="0"/><stop offset="1" stop-color="#fff" stop-opacity=".36"/></radialGradient></defs></svg>