<svg width="914" height="914" viewBox="0 0 914 914" fill="none" xmlns="http://www.w3.org/2000/svg">
<mask id="mask0_101_210" style="mask-type:alpha" maskUnits="userSpaceOnUse" x="0" y="0" width="914" height="914">
<circle cx="457" cy="457" r="457" fill="#D9D9D9"/>
</mask>
<g mask="url(#mask0_101_210)">
<circle cx="457" cy="457" r="457" fill="url(#paint0_linear_101_210)"/>
<circle cx="457" cy="457" r="457" fill="url(#paint1_radial_101_210)"/>
<g style="mix-blend-mode:color-dodge">
<path fill-rule="evenodd" clip-rule="evenodd" d="M48.7314 701.66L41.1933 697.97C40.5957 697.678 40.0599 697.136 39.7036 696.463L35.8165 689.124C32.2243 682.341 30.4084 680.154 28.1312 678.184C25.8541 676.215 23.409 675.019 20.9041 674.647C18.3995 674.276 16.2378 674.516 11.3075 677.127L4.25593 680.862C4.05232 680.97 3.76702 680.83 3.61866 680.55C3.54742 680.416 3.51786 680.266 3.53662 680.134L4.72001 671.826C4.81377 671.167 5.14124 670.651 5.63008 670.392L8.08214 669.094C14.6556 665.612 17.538 665.291 20.8776 665.787C24.2172 666.282 27.4775 667.878 30.5137 670.503C33.5499 673.129 35.9712 676.045 40.7608 685.089L49.1709 700.968C49.3193 701.248 49.2745 701.562 49.0708 701.67C48.973 701.722 48.8509 701.718 48.7314 701.66ZM38.8002 755.629L39.9836 747.32C40.0774 746.661 40.4047 746.146 40.8935 745.887L46.2284 743.062C51.1586 740.45 52.5723 738.797 53.6722 736.517C54.7723 734.236 55.1561 731.541 54.8067 728.551C54.4574 725.561 53.6681 722.83 50.0759 716.047L44.9378 706.346C44.7894 706.066 44.8344 705.751 45.038 705.643C45.1357 705.591 45.2577 705.595 45.3773 705.654L52.9154 709.343C53.513 709.636 54.0488 710.178 54.405 710.851L56.1917 714.224C60.9814 723.267 62.0337 726.909 62.4995 730.896C62.9654 734.883 62.4535 738.476 60.9868 741.517C59.5202 744.558 57.6351 746.762 51.0617 750.244L39.5194 756.357C39.3158 756.465 39.0305 756.325 38.8821 756.045C38.8109 755.91 38.7815 755.761 38.8002 755.629ZM-10.7654 728.894L-3.22734 732.584C-2.62974 732.876 -2.09396 733.418 -1.7377 734.091L2.14944 741.43C5.74169 748.213 7.55751 750.4 9.83468 752.369C12.1119 754.338 14.5571 755.535 17.0618 755.907C19.5665 756.278 21.7283 756.038 26.6585 753.427L33.7101 749.692C33.9137 749.584 34.1989 749.724 34.3473 750.004C34.4186 750.138 34.448 750.288 34.4292 750.42L33.246 758.728C33.1521 759.387 32.8248 759.903 32.3359 760.161L29.8839 761.46C23.3104 764.942 20.428 765.263 17.0884 764.767C13.7488 764.272 10.4886 762.676 7.45233 760.051C4.41606 757.425 1.99488 754.509 -2.79483 745.465L-11.2048 729.586C-11.3532 729.306 -11.3084 728.991 -11.1048 728.884C-11.007 728.832 -10.885 728.836 -10.7654 728.894ZM-2.01761 683.234C-2.11138 683.892 -2.43868 684.408 -2.92768 684.667L-8.26236 687.492C-13.1925 690.103 -14.6062 691.756 -15.7063 694.037C-16.8063 696.318 -17.1902 699.013 -16.8408 702.003C-16.4915 704.993 -15.7022 707.724 -12.11 714.507L-6.97189 724.208C-6.82349 724.488 -6.86833 724.803 -7.07194 724.911C-7.16972 724.962 -7.29178 724.959 -7.41129 724.9L-14.9494 721.211C-15.547 720.918 -16.0828 720.376 -16.439 719.703L-18.2257 716.33C-23.0153 707.287 -24.0677 703.645 -24.5335 699.658C-24.9993 695.671 -24.4875 692.078 -23.0208 689.037C-21.5541 685.996 -19.6691 683.792 -13.0956 680.31L-1.55354 674.197C-1.34992 674.089 -1.06446 674.229 -0.916104 674.509C-0.844861 674.644 -0.815469 674.793 -0.834219 674.925L-2.01761 683.234ZM32.8298 693.905L22.7426 689.236C22.0629 688.903 21.3948 688.753 20.7745 688.768C20.2576 688.771 19.7571 688.889 19.2981 689.132L1.75074 698.425C1.54713 698.533 1.26183 698.394 1.11347 698.113C1.0422 697.979 1.01277 697.829 1.03151 697.697L2.21868 689.386C2.3127 688.728 2.63983 688.213 3.1285 687.954L17.112 680.548C21.1843 678.391 26.8908 681.184 29.8579 686.786L33.2589 693.208C33.4073 693.488 33.3623 693.802 33.1587 693.91C33.0639 693.96 32.946 693.958 32.8298 693.905ZM41.2756 738.1L42.6257 726.91C42.7325 726.161 42.6833 725.377 42.5044 724.608C42.3624 723.969 42.1262 723.32 41.7917 722.689L29.0062 698.548C28.8579 698.268 28.9024 697.954 29.106 697.846C29.2039 697.794 29.326 697.798 29.4457 697.856L36.9872 701.551C37.5844 701.844 38.12 702.386 38.476 703.058L48.6647 722.296C51.6319 727.898 50.736 734.188 46.6637 736.345L41.9961 738.817C41.7925 738.925 41.5074 738.785 41.359 738.505C41.2898 738.374 41.2598 738.229 41.2756 738.1ZM5.13632 736.649L15.2234 741.318C15.903 741.651 16.5712 741.801 17.1915 741.786C17.7084 741.783 18.2089 741.665 18.6679 741.422L36.2153 732.129C36.4189 732.021 36.7041 732.16 36.8525 732.44C36.9238 732.575 36.9533 732.725 36.9346 732.857L35.7473 741.168C35.6533 741.826 35.326 742.341 34.8375 742.6L20.8539 750.006C16.7818 752.163 11.0753 749.37 8.10818 743.768L4.70719 737.346C4.55879 737.066 4.60363 736.752 4.80723 736.644C4.90212 736.593 5.01997 736.595 5.13632 736.649ZM-3.30615 692.46L-4.65641 703.65C-4.7631 704.399 -4.71378 705.184 -4.53511 705.952C-4.393 706.591 -4.15668 707.24 -3.82228 707.872L8.96329 732.012C9.11169 732.292 9.06685 732.607 8.86324 732.715C8.76542 732.766 8.64327 732.763 8.52362 732.704L0.982135 729.009C0.384976 728.716 -0.150448 728.174 -0.50646 727.502L-10.6953 708.264C-13.6625 702.662 -12.7667 696.372 -8.69455 694.216L-4.02687 691.744C-3.82326 691.636 -3.53796 691.775 -3.3896 692.055C-3.32046 692.186 -3.2906 692.331 -3.30615 692.46ZM56.2819 673.539L57.7088 672.783C58.6825 672.267 60.0458 672.933 60.7537 674.269L61.9674 676.561C62.005 676.632 62.0776 676.667 62.1294 676.64C61.897 674.238 62.2308 672.224 63.1305 670.6C64.0302 668.976 65.2766 667.742 66.8697 666.898C68.5878 665.988 70.3655 665.606 72.203 665.752C74.0403 665.898 75.8468 666.477 77.6223 667.487C79.3978 668.499 81.0814 669.903 82.6732 671.699C84.265 673.496 85.69 675.583 86.9481 677.958C88.2062 680.334 89.1157 682.693 89.6767 685.036C90.2376 687.379 90.445 689.565 90.2995 691.593C90.1538 693.622 89.6407 695.429 88.7604 697.014C87.8801 698.599 86.6433 699.814 85.0502 700.658C83.9881 701.22 82.9679 701.56 81.9895 701.676C81.011 701.793 80.0791 701.77 79.1932 701.608C78.3071 701.446 77.4972 701.2 76.7633 700.872C76.029 700.543 75.3792 700.184 74.8131 699.795C74.7356 699.836 74.7182 699.956 74.7747 700.063L83.3985 716.346C84.2625 717.977 83.9996 719.81 82.8114 720.439L81.4919 721.138C80.3035 721.767 78.6397 720.955 77.7757 719.324L55.6945 677.632C54.8305 676.001 55.0935 674.168 56.2819 673.539ZM81.3253 680.936C80.6606 679.681 79.8712 678.55 78.9571 677.542C78.0432 676.534 77.06 675.734 76.0072 675.144C74.9546 674.554 73.8797 674.205 72.7827 674.097C71.6857 673.989 70.6217 674.208 69.5909 674.754C68.56 675.3 67.7809 676.057 67.2534 677.025C66.7262 677.993 66.411 679.078 66.3078 680.281C66.2048 681.484 66.3133 682.746 66.6337 684.068C66.9542 685.391 67.4468 686.68 68.1114 687.935C68.776 689.19 69.5655 690.321 70.4793 691.329C71.3932 692.338 72.3766 693.137 73.4293 693.727C74.4821 694.317 75.5568 694.667 76.6538 694.774C77.751 694.882 78.8149 694.663 79.8458 694.117C80.8767 693.571 81.6557 692.814 82.183 691.846C82.7103 690.878 83.0256 689.793 83.1287 688.59C83.2319 687.387 83.1232 686.125 82.8027 684.802C82.4824 683.48 81.9899 682.191 81.3253 680.936ZM86.5049 657.532L88.115 656.679C89.1428 656.134 90.5819 656.837 91.3292 658.248L92.6141 660.674C92.6517 660.745 92.7242 660.78 92.7759 660.753C92.4037 658.54 92.5225 656.611 93.1323 654.968C93.7421 653.325 94.7968 652.107 96.2962 651.313C96.6398 651.131 96.9994 650.998 97.3747 650.914C98.0452 650.763 98.8409 651.246 99.275 652.065L101.619 656.492C102.091 657.382 101.947 658.382 101.299 658.725C101.229 658.762 101.155 658.791 101.077 658.81C100.565 658.938 100.09 659.118 99.6525 659.349C98.3406 660.044 97.4702 660.95 97.0416 662.066C96.613 663.183 96.4251 664.301 96.4782 665.421C96.5313 666.541 96.7248 667.586 97.059 668.557C97.3932 669.528 97.6791 670.237 97.9166 670.686L105.503 685.01C106.367 686.641 106.104 688.474 104.916 689.103L103.596 689.802C102.408 690.432 100.744 689.619 99.8803 687.988L85.9176 661.625C85.0536 659.993 85.3165 658.161 86.5049 657.532ZM105.529 647.456L106.848 646.757C108.037 646.128 109.7 646.94 110.564 648.571L124.527 674.934C125.391 676.566 125.128 678.398 123.94 679.028L122.62 679.726C121.432 680.356 119.768 679.544 118.904 677.912L104.942 651.549C104.078 649.918 104.341 648.085 105.529 647.456ZM96.7766 638.059C96.0882 636.759 95.8246 635.449 95.9858 634.13C96.1472 632.811 96.7433 631.878 97.7742 631.332C98.805 630.786 99.9152 630.786 101.105 631.333C102.294 631.879 103.257 632.847 103.993 634.237C104.729 635.626 104.988 636.966 104.772 638.258C104.556 639.549 103.932 640.467 102.902 641.013C101.871 641.559 100.764 641.528 99.5822 640.92C98.4002 640.312 97.465 639.359 96.7766 638.059ZM130.712 643.561C128.961 643.014 127.641 642.976 126.751 643.447C126.001 643.844 125.41 644.502 124.976 645.421C124.543 646.339 124.646 647.403 125.287 648.613C125.809 649.599 126.486 650.159 127.317 650.293C128.148 650.427 129.099 650.411 130.171 650.245C131.244 650.079 132.392 649.887 133.616 649.668C134.841 649.451 136.09 649.449 137.364 649.664C138.638 649.879 139.892 650.434 141.126 651.33C142.361 652.226 143.536 653.727 144.652 655.834C145.672 657.761 146.244 659.539 146.366 661.167C146.488 662.795 146.303 664.256 145.808 665.551C145.314 666.846 144.584 667.979 143.618 668.95C142.652 669.921 141.592 670.712 140.436 671.324C138.686 672.251 136.888 672.744 135.04 672.805C134.316 672.828 133.327 672.629 132.073 672.208C130.605 671.714 129.445 669.954 129.482 668.276C129.486 668.134 129.498 667.994 129.519 667.858L129.687 666.765C129.918 665.256 131.17 664.533 132.557 665.107C133.117 665.339 133.581 665.5 133.949 665.591C135.168 665.892 136.372 665.728 137.559 665.1C137.965 664.884 138.351 664.594 138.717 664.228C139.083 663.862 139.371 663.423 139.579 662.91C139.788 662.398 139.885 661.844 139.87 661.25C139.855 660.655 139.681 660.044 139.349 659.417C138.756 658.296 138.02 657.624 137.141 657.4C136.263 657.177 135.282 657.137 134.198 657.281C133.114 657.424 131.971 657.628 130.771 657.891C129.57 658.154 128.345 658.2 127.094 658.03C125.844 657.86 124.614 657.349 123.403 656.498C122.192 655.647 121.041 654.191 119.949 652.129C119 650.336 118.432 648.642 118.248 647.047C118.063 645.452 118.167 644.005 118.559 642.707C118.951 641.409 119.587 640.268 120.467 639.286C121.347 638.303 122.349 637.514 123.473 636.919C124.973 636.125 126.653 635.708 128.512 635.67C129.186 635.657 130.042 635.839 131.079 636.216L131.08 636.216C132.547 636.749 133.677 638.531 133.605 640.197C133.599 640.335 133.584 640.47 133.561 640.601L133.34 641.877C133.101 643.254 131.995 643.963 130.712 643.561ZM139.594 629.414L140.633 628.864C141.821 628.234 143.485 629.047 144.349 630.678L145.455 632.767C145.241 630.928 145.328 629.147 145.807 627.371C146.287 625.596 147.465 624.212 149.338 623.22C152.869 621.35 156.268 622.104 159.537 625.48C159.256 622.989 159.47 620.939 160.178 619.33C160.886 617.721 162.084 616.469 163.77 615.576C165.27 614.782 166.725 614.47 168.137 614.641C169.546 614.813 170.904 615.357 172.209 616.272C173.514 617.188 174.753 618.412 175.924 619.944C177.095 621.476 178.191 623.205 179.212 625.132L187.832 641.406C188.696 643.038 188.432 644.871 187.245 645.499L185.925 646.199C184.736 646.828 183.073 646.015 182.209 644.384L174.088 629.051C173.566 628.065 172.999 627.146 172.388 626.293C171.775 625.441 171.129 624.75 170.449 624.221C169.769 623.691 169.057 623.366 168.312 623.243C167.567 623.122 166.774 623.283 165.93 623.73C165.054 624.194 164.437 624.822 164.078 625.615C163.719 626.408 163.55 627.301 163.575 628.292C163.601 629.282 163.793 630.329 164.157 631.427C164.518 632.527 164.973 633.592 165.519 634.623L173.212 649.149C174.076 650.78 173.813 652.613 172.624 653.243L171.306 653.941C170.117 654.571 168.452 653.759 167.588 652.128L158.969 635.853C157.901 633.837 156.757 632.391 155.533 631.518C154.311 630.644 153.013 630.571 151.637 631.3C150.701 631.796 150.03 632.438 149.627 633.225C149.224 634.013 149.014 634.899 148.996 635.884C148.978 636.869 149.136 637.905 149.471 638.99C149.806 640.075 150.258 641.156 150.828 642.232L158.592 656.892C159.456 658.523 159.194 660.356 158.005 660.986L156.686 661.684C155.497 662.314 153.834 661.502 152.97 659.87L139.007 633.507C138.143 631.876 138.406 630.043 139.594 629.414ZM181.392 607.277L182.71 606.578C183.899 605.949 185.563 606.76 186.427 608.392L200.39 634.755C201.254 636.386 200.99 638.219 199.802 638.849L198.483 639.547C197.294 640.177 195.63 639.365 194.766 637.734L180.803 611.37C179.939 609.739 180.203 607.906 181.392 607.277ZM172.638 597.88C171.95 596.58 171.687 595.27 171.848 593.951C172.01 592.632 172.605 591.699 173.636 591.153C174.667 590.607 175.778 590.607 176.967 591.154C178.157 591.7 179.119 592.668 179.855 594.058C180.591 595.447 180.851 596.787 180.635 598.078C180.419 599.369 179.795 600.288 178.764 600.834C177.733 601.38 176.627 601.349 175.445 600.741C174.263 600.133 173.327 599.18 172.638 597.88ZM210.14 602.185C209.778 602.058 209.471 601.971 209.22 601.921C208.192 601.72 207.304 601.817 206.555 602.214C205.524 602.76 204.746 603.517 204.218 604.485C203.69 605.453 203.375 606.538 203.272 607.741C203.168 608.943 203.278 610.206 203.597 611.528C203.917 612.851 204.411 614.14 205.075 615.394C205.74 616.649 206.529 617.781 207.443 618.789C208.357 619.797 209.34 620.597 210.393 621.187C211.446 621.777 212.52 622.126 213.618 622.234C214.716 622.341 215.779 622.122 216.81 621.576C217.684 621.113 218.36 620.425 218.838 619.512C218.934 619.328 219.023 619.099 219.105 618.826L219.105 618.826C219.522 617.449 220.865 616.968 222.207 617.716L223.761 618.581C225.127 619.343 225.994 621.161 225.695 622.641C225.659 622.823 225.604 622.995 225.535 623.154C225.11 624.125 224.617 624.989 224.058 625.744C223.497 626.5 222.916 627.138 222.311 627.659C221.706 628.18 221.155 628.573 220.656 628.837C218.968 629.731 217.161 630.171 215.235 630.158C213.308 630.146 211.406 629.69 209.529 628.79C207.654 627.889 205.843 626.567 204.099 624.822C202.355 623.077 200.806 620.927 199.453 618.372C198.1 615.817 197.192 613.328 196.728 610.905C196.265 608.482 196.188 606.241 196.497 604.184C196.807 602.125 197.499 600.295 198.571 598.694C199.643 597.094 201.022 595.847 202.71 594.953C204.147 594.192 205.799 593.819 207.666 593.834C208.378 593.84 209.315 594.028 210.474 594.4C211.945 594.87 213.12 596.617 213.104 598.3C213.103 598.425 213.094 598.548 213.08 598.668L212.871 600.375C212.687 601.877 211.508 602.659 210.14 602.185Z" fill="#969696"/>
</g>
<g style="mix-blend-mode:color-dodge">
<path fill-rule="evenodd" clip-rule="evenodd" d="M812.277 297.569L805.72 293.329C805.2 292.993 804.707 292.424 804.35 291.749L800.447 284.381C796.841 277.571 795.136 275.312 793.074 273.216C791.011 271.121 788.884 269.746 786.788 269.151C784.691 268.557 782.935 268.579 779.129 270.595L773.684 273.478C773.527 273.562 773.279 273.401 773.13 273.12C773.059 272.985 773.02 272.84 773.023 272.716L773.199 264.91C773.213 264.291 773.433 263.831 773.811 263.631L775.704 262.628C780.779 259.94 783.12 259.911 785.916 260.703C788.711 261.496 791.547 263.33 794.297 266.123C797.048 268.917 799.32 271.93 804.129 281.009L812.572 296.951C812.721 297.233 812.714 297.528 812.557 297.611C812.482 297.651 812.381 297.636 812.277 297.569ZM809.282 348.058L809.459 340.252C809.473 339.633 809.692 339.173 810.07 338.973L814.189 336.792C817.995 334.776 819 333.336 819.686 331.267C820.373 329.199 820.43 326.667 819.856 323.783C819.281 320.9 818.37 318.221 814.763 311.411L809.605 301.671C809.456 301.39 809.463 301.094 809.62 301.011C809.695 300.971 809.796 300.987 809.9 301.054L816.457 305.294C816.977 305.63 817.47 306.198 817.827 306.873L819.621 310.26C824.43 319.34 825.645 322.912 826.411 326.757C827.176 330.601 827.1 333.978 826.185 336.735C825.27 339.493 823.93 341.413 818.855 344.101L809.943 348.821C809.786 348.904 809.538 348.744 809.389 348.463C809.318 348.327 809.279 348.182 809.282 348.058ZM765.931 317.821L772.488 322.061C773.008 322.397 773.501 322.965 773.858 323.64L777.761 331.009C781.368 337.818 783.072 340.077 785.134 342.173C787.197 344.268 789.324 345.643 791.421 346.238C793.517 346.832 795.273 346.81 799.079 344.794L804.524 341.911C804.681 341.827 804.929 341.988 805.078 342.269C805.15 342.404 805.188 342.55 805.185 342.673L805.009 350.48C804.995 351.099 804.775 351.558 804.397 351.758L802.504 352.761C797.429 355.449 795.088 355.478 792.292 354.686C789.497 353.893 786.661 352.06 783.911 349.266C781.16 346.472 778.888 343.46 774.08 334.38L765.636 318.438C765.487 318.157 765.494 317.861 765.651 317.778C765.726 317.738 765.827 317.753 765.931 317.821ZM768.75 275.137C768.736 275.756 768.516 276.216 768.138 276.416L764.02 278.597C760.213 280.613 759.208 282.053 758.522 284.122C757.836 286.19 757.778 288.722 758.353 291.606C758.927 294.489 759.838 297.169 763.445 303.978L768.603 313.718C768.752 313.999 768.746 314.295 768.588 314.378C768.513 314.418 768.412 314.403 768.308 314.335L761.751 310.095C761.232 309.759 760.739 309.191 760.381 308.516L758.587 305.129C753.779 296.05 752.563 292.477 751.797 288.633C751.032 284.788 751.108 281.412 752.023 278.654C752.939 275.896 754.278 273.976 759.353 271.288L768.265 266.568C768.422 266.485 768.67 266.645 768.819 266.927C768.891 267.062 768.929 267.207 768.926 267.331L768.75 275.137ZM798.448 288.651L789.7 283.233C789.109 282.851 788.544 282.644 788.035 282.598C787.61 282.552 787.21 282.616 786.855 282.804L773.308 289.979C773.151 290.062 772.902 289.902 772.753 289.621C772.682 289.485 772.643 289.34 772.646 289.216L772.826 281.408C772.84 280.789 773.06 280.33 773.437 280.13L784.233 274.412C787.377 272.747 792.341 275.957 795.32 281.581L798.734 288.028C798.883 288.309 798.876 288.605 798.719 288.688C798.646 288.727 798.549 288.714 798.448 288.651ZM809.637 331.588L809.675 321.051C809.691 320.347 809.575 319.595 809.354 318.845C809.176 318.222 808.919 317.581 808.584 316.947L795.747 292.71C795.598 292.429 795.605 292.134 795.762 292.051C795.837 292.011 795.938 292.026 796.042 292.093L802.603 296.339C803.122 296.675 803.615 297.243 803.972 297.918L814.202 317.232C817.181 322.856 817.047 328.766 813.903 330.431L810.299 332.34C810.142 332.423 809.894 332.263 809.745 331.981C809.675 331.85 809.637 331.709 809.637 331.588ZM779.76 326.738L788.508 332.156C789.1 332.538 789.664 332.745 790.173 332.791C790.598 332.837 790.998 332.773 791.353 332.585L804.9 325.41C805.058 325.327 805.306 325.487 805.455 325.769C805.526 325.904 805.565 326.049 805.562 326.173L805.382 333.981C805.368 334.6 805.148 335.059 804.771 335.259L793.975 340.977C790.831 342.642 785.867 339.433 782.889 333.808L779.474 327.361C779.325 327.08 779.332 326.784 779.489 326.701C779.562 326.662 779.659 326.675 779.76 326.738ZM768.574 283.808L768.537 294.345C768.521 295.049 768.637 295.801 768.857 296.551C769.036 297.173 769.292 297.814 769.628 298.448L782.465 322.685C782.614 322.966 782.607 323.262 782.45 323.345C782.374 323.385 782.273 323.37 782.169 323.302L775.609 319.057C775.09 318.721 774.597 318.153 774.24 317.478L764.01 298.164C761.031 292.539 761.165 286.63 764.309 284.964L767.913 283.056C768.07 282.973 768.318 283.133 768.467 283.414C768.536 283.545 768.575 283.686 768.574 283.808ZM815.792 271.488L816.894 270.905C817.646 270.507 818.832 271.272 819.542 272.614L820.761 274.915C820.799 274.986 820.862 275.027 820.902 275.006C820.48 272.693 820.562 270.806 821.146 269.344C821.731 267.882 822.638 266.826 823.868 266.174C825.194 265.472 826.62 265.278 828.147 265.594C829.672 265.909 831.214 266.634 832.772 267.768C834.33 268.902 835.85 270.401 837.333 272.267C838.815 274.132 840.188 276.258 841.451 278.643C842.714 281.028 843.688 283.364 844.375 285.651C845.061 287.938 845.442 290.041 845.516 291.961C845.591 293.88 845.342 295.554 844.77 296.98C844.198 298.407 843.296 299.446 842.066 300.098C841.246 300.532 840.439 300.757 839.646 300.775C838.852 300.792 838.082 300.681 837.338 300.441C836.593 300.201 835.903 299.89 835.268 299.506C834.632 299.123 834.063 298.718 833.56 298.293C833.5 298.325 833.497 298.438 833.554 298.545L842.212 314.892C843.08 316.53 843.039 318.252 842.122 318.738L841.103 319.277C840.185 319.763 838.738 318.829 837.871 317.191L815.702 275.334C814.834 273.696 814.875 271.974 815.792 271.488ZM837.109 280.942C836.442 279.682 835.684 278.528 834.835 277.479C833.986 276.431 833.101 275.574 832.178 274.911C831.255 274.247 830.337 273.811 829.424 273.603C828.511 273.395 827.657 273.502 826.861 273.924C826.065 274.345 825.496 274.992 825.155 275.864C824.814 276.736 824.659 277.74 824.689 278.877C824.72 280.013 824.93 281.227 825.321 282.518C825.711 283.81 826.24 285.085 826.908 286.345C827.575 287.605 828.333 288.759 829.182 289.808C830.03 290.857 830.916 291.713 831.839 292.377C832.762 293.04 833.68 293.476 834.593 293.684C835.506 293.892 836.36 293.785 837.156 293.363C837.952 292.942 838.521 292.295 838.862 291.423C839.203 290.551 839.358 289.547 839.328 288.41C839.297 287.274 839.087 286.06 838.696 284.769C838.306 283.478 837.777 282.202 837.109 280.942ZM839.127 259.13L840.37 258.472C841.163 258.051 842.415 258.859 843.165 260.275L844.455 262.711C844.493 262.782 844.556 262.823 844.596 262.802C844.077 260.657 843.99 258.83 844.334 257.322C844.678 255.815 845.429 254.755 846.587 254.142C846.852 254.001 847.135 253.909 847.436 253.864C847.973 253.786 848.674 254.322 849.11 255.145L851.464 259.589C851.937 260.482 851.915 261.422 851.414 261.687C851.361 261.715 851.302 261.735 851.24 261.746C850.831 261.819 850.457 261.945 850.12 262.124C849.107 262.66 848.477 263.44 848.232 264.463C847.986 265.486 847.939 266.534 848.09 267.607C848.241 268.679 848.501 269.694 848.869 270.651C849.237 271.609 849.54 272.313 849.779 272.763L857.396 287.144C858.263 288.782 858.222 290.504 857.305 290.99L856.286 291.529C855.369 292.015 853.922 291.081 853.054 289.443L839.036 262.975C838.168 261.337 838.209 259.616 839.127 259.13ZM853.814 251.351L854.833 250.811C855.751 250.325 857.197 251.259 858.065 252.897L872.083 279.365C872.951 281.003 872.91 282.725 871.993 283.21L870.974 283.75C870.056 284.236 868.609 283.302 867.742 281.664L853.724 255.196C852.856 253.558 852.897 251.837 853.814 251.351ZM845.711 241.554C845.02 240.249 844.677 238.976 844.683 237.734C844.69 236.491 845.091 235.66 845.887 235.238C846.682 234.817 847.596 234.923 848.627 235.558C849.658 236.193 850.543 237.208 851.282 238.603C852.021 239.998 852.363 241.301 852.309 242.511C852.255 243.721 851.83 244.536 851.034 244.958C850.238 245.379 849.325 245.244 848.294 244.551C847.263 243.858 846.402 242.859 845.711 241.554ZM874.163 250.054C872.67 249.365 871.58 249.202 870.893 249.566C870.314 249.872 869.89 250.443 869.622 251.276C869.353 252.11 869.54 253.134 870.184 254.349C870.708 255.339 871.319 255.938 872.015 256.145C872.712 256.353 873.493 256.428 874.359 256.373C875.226 256.318 876.152 256.245 877.139 256.154C878.126 256.064 879.153 256.182 880.222 256.509C881.291 256.836 882.376 257.486 883.478 258.458C884.58 259.43 885.691 260.974 886.811 263.089C887.835 265.024 888.476 266.773 888.733 268.337C888.99 269.901 888.977 271.276 888.695 272.463C888.412 273.65 887.92 274.659 887.219 275.492C886.517 276.325 885.72 276.977 884.828 277.45C883.477 278.165 882.044 278.463 880.529 278.343C879.936 278.297 879.103 278.012 878.031 277.49C876.775 276.879 875.652 275.09 875.522 273.494C875.511 273.358 875.508 273.227 875.512 273.099L875.545 272.073C875.591 270.657 876.552 270.088 877.748 270.769C878.231 271.043 878.628 271.241 878.94 271.363C879.972 271.767 880.947 271.726 881.863 271.241C882.177 271.075 882.467 270.835 882.733 270.521C882.999 270.207 883.193 269.816 883.316 269.348C883.438 268.88 883.465 268.361 883.396 267.793C883.326 267.225 883.125 266.626 882.791 265.996C882.195 264.871 881.525 264.16 880.781 263.862C880.037 263.565 879.226 263.433 878.348 263.466C877.469 263.499 876.549 263.583 875.586 263.718C874.623 263.854 873.619 263.78 872.574 263.498C871.529 263.216 870.468 262.612 869.39 261.685C868.312 260.757 867.225 259.259 866.129 257.189C865.175 255.389 864.546 253.72 864.241 252.181C863.936 250.643 863.882 249.274 864.081 248.074C864.279 246.874 864.693 245.848 865.323 244.996C865.952 244.144 866.701 243.488 867.57 243.028C868.727 242.415 870.069 242.18 871.596 242.322C872.149 242.373 872.871 242.629 873.761 243.088L873.761 243.088C875.02 243.737 876.121 245.544 876.221 247.125C876.229 247.256 876.23 247.384 876.224 247.506L876.164 248.701C876.099 249.991 875.258 250.56 874.163 250.054ZM880.115 237.421L880.917 236.997C881.834 236.511 883.281 237.444 884.148 239.082L885.259 241.179C884.907 239.406 884.807 237.716 885.032 236.07C885.256 234.425 886.093 233.218 887.539 232.452C890.265 231.008 893.134 232.053 896.148 235.585C895.678 233.183 895.657 231.25 896.085 229.784C896.514 228.318 897.379 227.24 898.681 226.551C899.839 225.938 901.007 225.78 902.184 226.078C903.361 226.377 904.53 227.026 905.692 228.024C906.854 229.022 907.991 230.307 909.101 231.879C910.212 233.452 911.28 235.205 912.305 237.14L920.958 253.479C921.826 255.117 921.785 256.839 920.868 257.325L919.849 257.864C918.931 258.35 917.485 257.416 916.617 255.778L908.464 240.384C907.94 239.395 907.385 238.464 906.8 237.592C906.214 236.721 905.617 236.001 905.006 235.431C904.396 234.861 903.778 234.482 903.154 234.294C902.529 234.107 901.892 234.185 901.24 234.53C900.565 234.888 900.117 235.428 899.898 236.149C899.678 236.87 899.625 237.705 899.74 238.652C899.857 239.599 900.115 240.614 900.52 241.697C900.923 242.78 901.399 243.838 901.947 244.873L909.671 259.457C910.539 261.095 910.498 262.817 909.58 263.303L908.562 263.842C907.644 264.328 906.197 263.395 905.329 261.757L896.676 245.418C895.603 243.393 894.523 241.905 893.432 240.956C892.343 240.006 891.268 239.812 890.206 240.374C889.483 240.757 888.992 241.305 888.736 242.017C888.48 242.729 888.393 243.553 888.472 244.49C888.552 245.428 888.781 246.43 889.161 247.497C889.54 248.563 890.016 249.636 890.588 250.716L898.384 265.435C899.251 267.073 899.211 268.795 898.293 269.281L897.275 269.82C896.357 270.306 894.91 269.372 894.043 267.735L880.024 241.267C879.157 239.629 879.198 237.907 880.115 237.421ZM912.385 220.33L913.403 219.791C914.321 219.305 915.768 220.238 916.636 221.876L930.654 248.344C931.522 249.982 931.481 251.704 930.563 252.19L929.545 252.729C928.627 253.215 927.179 252.282 926.312 250.644L912.294 224.176C911.426 222.538 911.467 220.816 912.385 220.33ZM904.281 210.534C903.59 209.229 903.248 207.955 903.254 206.713C903.26 205.471 903.661 204.639 904.457 204.217C905.253 203.796 906.167 203.902 907.198 204.538C908.229 205.173 909.114 206.188 909.853 207.583C910.592 208.978 910.934 210.28 910.88 211.49C910.826 212.7 910.401 213.515 909.605 213.937C908.809 214.359 907.896 214.223 906.865 213.53C905.834 212.837 904.972 211.839 904.281 210.534ZM935.553 218.234C935.243 218.079 934.982 217.966 934.771 217.895C933.906 217.604 933.184 217.612 932.606 217.918C931.81 218.34 931.242 218.986 930.9 219.859C930.559 220.731 930.404 221.735 930.434 222.871C930.465 224.008 930.675 225.221 931.066 226.513C931.456 227.804 931.985 229.08 932.652 230.34C933.32 231.599 934.077 232.754 934.926 233.802C935.776 234.851 936.661 235.707 937.584 236.371C938.507 237.035 939.424 237.47 940.338 237.678C941.251 237.886 942.106 237.779 942.902 237.357C943.576 237 944.067 236.409 944.372 235.585C944.433 235.418 944.485 235.209 944.526 234.956L944.526 234.957C944.737 233.684 945.796 233.354 946.973 234.196L948.334 235.169C949.532 236.027 950.419 237.843 950.315 239.225C950.302 239.395 950.274 239.553 950.232 239.698C949.976 240.583 949.653 241.359 949.265 242.025C948.877 242.692 948.46 243.244 948.012 243.683C947.564 244.122 947.148 244.443 946.763 244.647C945.459 245.337 944.015 245.584 942.429 245.387C940.842 245.19 939.233 244.573 937.602 243.535C935.973 242.497 934.356 241.062 932.753 239.232C931.151 237.401 929.67 235.204 928.312 232.639C926.953 230.073 925.967 227.614 925.353 225.26C924.739 222.905 924.461 220.762 924.518 218.831C924.576 216.898 924.97 215.221 925.698 213.797C926.427 212.374 927.442 211.318 928.745 210.628C929.854 210.041 931.179 209.843 932.716 210.037C933.303 210.111 934.091 210.38 935.081 210.846C936.336 211.435 937.471 213.213 937.619 214.816C937.63 214.935 937.635 215.051 937.635 215.164L937.627 216.771C937.619 218.185 936.724 218.817 935.553 218.234Z" fill="#969696"/>
</g>
<g style="mix-blend-mode:color-dodge">
<path fill-rule="evenodd" clip-rule="evenodd" d="M325.702 515.544C324.27 512.935 320.356 513.562 319.811 516.489L311.593 560.647C310.623 565.859 316.102 569.886 320.787 567.405L346.312 553.885L357.222 573.759C358.655 576.368 362.569 575.74 363.113 572.814L371.332 528.656C372.301 523.444 366.823 519.417 362.138 521.898L336.444 535.506L325.702 515.544ZM537.582 454.172L539.4 457.605L532.029 461.509L510.091 420.088L517.576 416.123L526.242 432.486C526.439 429.818 528.555 426.353 532.727 424.143C540.955 419.785 549.062 423.623 553.486 431.976C558.001 440.5 556.107 449.635 548.106 453.873C544.22 455.931 540.34 455.789 537.582 454.172ZM543.186 447.761C547.072 445.703 548.643 441.208 545.915 436.059C543.188 430.91 538.618 429.741 534.732 431.799C530.904 433.826 529.189 438.324 531.916 443.473C534.613 448.565 539.358 449.788 543.186 447.761ZM495.451 471.066C497.784 475.471 503.592 477.596 509.593 474.418C513.763 472.209 515.419 468.842 515.665 465.854C516.241 466.941 517.174 468.425 517.739 469.078L524.711 465.386C524.024 464.504 522.793 462.592 522.005 461.104L514.672 447.259C511.672 441.595 505.691 438.316 496.777 443.037C489.234 447.032 487.752 454.044 489.629 458.691L497.129 456.551C496.055 453.969 496.762 450.884 500.076 449.129C503.276 447.434 505.698 448.276 506.758 450.278C507.273 451.251 507.184 452.324 505.705 453.4L499.336 458.092C495.014 461.26 492.784 466.031 495.451 471.066ZM508.192 467.907C505.735 469.208 503.686 468.242 502.808 466.583C501.656 464.409 502.623 462.505 504.415 461.19L510.243 456.858L510.91 458.116C513.546 463.094 511.392 466.212 508.192 467.907ZM400.086 521.354C402.125 524.377 407.948 528.326 416.406 523.846C423.777 519.942 424.836 513.374 422.412 508.797C420.23 504.678 415.642 502.786 409.493 504.577L405.038 505.838C403.344 506.369 401.861 506.055 401.134 504.682C400.285 503.08 401.249 501.031 403.249 499.972C406.449 498.277 408.77 499.758 409.878 501.296L415.463 496.507C413.514 493.656 408.132 489.987 400.132 494.224C394.074 497.432 391.829 503.969 394.496 509.004C396.587 512.951 400.77 514.911 406.836 513.237L411.005 512.128C413.418 511.436 414.821 512.012 415.488 513.27C416.276 514.758 415.772 516.709 413.258 518.041C409.944 519.796 407.195 518.614 405.843 516.474L400.086 521.354ZM451.154 504.344L458.411 500.5C457.782 499.588 456.58 497.734 455.428 495.559L443.217 472.503L435.616 476.529L444.282 492.891C446.01 496.152 445.279 499.47 441.908 501.255C438.365 503.131 435.431 501.462 433.765 498.315L425.159 482.067L417.559 486.092L426.983 503.885C430.225 510.007 436.747 512.926 443.547 509.325C446.518 507.751 449.171 504.881 449.319 501.432C449.925 502.576 450.736 503.832 451.154 504.344ZM472.381 489.584L479.593 503.2L471.993 507.225L451.328 468.207L458.699 464.303L460.517 467.736C460.623 464.896 462.766 461.343 466.994 459.104C475.223 454.746 483.299 458.527 487.723 466.88C492.237 475.405 490.257 484.512 482.314 488.719C478.428 490.777 474.752 490.746 472.381 489.584ZM477.508 482.547C481.394 480.488 482.934 475.937 480.267 470.902C477.631 465.925 473 464.641 469.114 466.699C465.229 468.757 463.632 473.339 466.268 478.316C468.904 483.294 473.623 484.604 477.508 482.547ZM561.244 436.219C563.578 440.625 569.386 442.75 575.386 439.572C579.557 437.363 581.213 433.995 581.459 431.007C582.035 432.094 582.968 433.578 583.533 434.231L590.504 430.539C589.819 429.657 588.587 427.745 587.799 426.258L580.466 412.412C577.466 406.748 571.485 403.469 562.571 408.191C555.028 412.186 553.546 419.197 555.422 423.845L562.922 421.704C561.848 419.123 562.556 416.037 565.869 414.282C569.07 412.587 571.492 413.429 572.552 415.432C573.067 416.404 572.977 417.478 571.498 418.554L565.13 423.246C560.808 426.414 558.578 431.185 561.244 436.219ZM573.987 433.06C571.529 434.362 569.48 433.396 568.602 431.737C567.45 429.563 568.417 427.658 570.209 426.343L576.037 422.011L576.703 423.27C579.34 428.247 577.186 431.366 573.987 433.06ZM607.592 422.588C599.135 427.067 593.311 423.119 591.272 420.096L597.029 415.215C598.382 417.356 601.13 418.538 604.444 416.783C606.959 415.451 607.462 413.5 606.674 412.012C606.008 410.753 604.605 410.177 602.191 410.87L598.022 411.979C591.956 413.653 587.773 411.693 585.682 407.745C583.016 402.711 585.26 396.174 591.318 392.966C599.318 388.729 604.7 392.398 606.649 395.249L601.065 400.038C599.957 398.5 597.636 397.019 594.435 398.714C592.435 399.773 591.472 401.822 592.32 403.424C593.048 404.797 594.53 405.111 596.224 404.58L600.679 403.319C606.828 401.527 611.415 403.42 613.597 407.54C616.021 412.116 614.964 418.684 607.592 422.588ZM620.443 392.558C619.251 389.893 619.847 385.768 623.79 383.679C628.133 381.379 631.416 383.157 633.015 385.9L620.443 392.558ZM637.637 392.829C638.056 395.831 637.052 398.634 633.509 400.51C629.737 402.508 625.17 401.483 623.03 397.855L643.144 387.202C643.129 387.174 643.088 387.08 643.027 386.939C642.837 386.504 642.45 385.616 642.015 384.796C637.228 375.756 629.089 372.961 620.403 377.561C613.203 381.374 609.665 390.721 614.422 399.703C619.452 409.2 629.191 411.149 636.906 407.062C643.82 403.4 646.126 396.978 644.98 391.358L637.637 392.829Z" fill="#969696"/>
</g>
</g>
<defs>
<linearGradient id="paint0_linear_101_210" x1="119.5" y1="763" x2="825.5" y2="190" gradientUnits="userSpaceOnUse">
<stop stop-color="#01A6DC"/>
<stop offset="0.557292" stop-color="#8801E4"/>
<stop offset="1" stop-color="#F5CBE1"/>
</linearGradient>
<radialGradient id="paint1_radial_101_210" cx="0" cy="0" r="1" gradientUnits="userSpaceOnUse" gradientTransform="translate(457 457) rotate(90) scale(457)">
<stop stop-color="white" stop-opacity="0"/>
<stop offset="0.963542" stop-color="white" stop-opacity="0"/>
<stop offset="1" stop-color="white" stop-opacity="0.36"/>
</radialGradient>
</defs>
</svg>
