<svg width="307" height="360" fill="none" xmlns="http://www.w3.org/2000/svg"><g filter="url(#a)"><path d="M120.27 274.56h23.4v1.87h-21.25v14.02h19.98v1.87h-19.98v15.4h21.49v1.86h-23.64v-35.02Zm25.5 0h2.48l11.01 15.4 11.26-15.4L185.84 255l-25.16 36.58 12.96 18h-2.58l-11.8-16.38-11.84 16.38h-2.53l13.06-18-12.19-17.02Zm28.8 1.87v-1.87h26.66v1.87h-12.28v33.15h-2.15v-33.15h-12.23ZM91 274.56h2.68L130.65 330l-15.28-20.42-22.13-32.37-.1 32.37H91v-35.02Zm110.02 32.6a.76.76 0 0 1-.77-.79c0-.44.33-.78.77-.78s.76.34.76.78-.32.78-.76.78Zm2.1-2.06h1.15c.02.62.47 1.04 1.14 1.04.75 0 1.17-.45 1.17-1.3v-5.33h1.17v5.34c0 1.52-.88 2.4-2.33 2.4-1.36 0-2.3-.85-2.3-2.15Zm6.15-.07h1.16c.1.72.8 1.17 1.8 1.17.95 0 1.63-.48 1.63-1.15 0-.58-.43-.92-1.43-1.16l-.97-.23c-1.36-.32-1.98-.98-1.98-2.1 0-1.34 1.1-2.23 2.74-2.23 1.52 0 2.64.9 2.7 2.16h-1.13c-.1-.7-.71-1.13-1.59-1.13-.92 0-1.54.45-1.54 1.13 0 .54.4.85 1.38 1.08l.83.2c1.54.36 2.18.99 2.18 2.13 0 1.44-1.12 2.35-2.9 2.35-1.67 0-2.8-.87-2.88-2.22Z" fill="#fff"/></g><defs><filter id="a" x="0" y="0" width="306.05" height="360" filterUnits="userSpaceOnUse" color-interpolation-filters="sRGB"><feFlood flood-opacity="0" result="BackgroundImageFix"/><feColorMatrix in="SourceAlpha" values="0 0 0 0 0 0 0 0 0 0 0 0 0 0 0 0 0 0 127 0" result="hardAlpha"/><feOffset dy="-164"/><feGaussianBlur stdDeviation="45.5"/><feComposite in2="hardAlpha" operator="out"/><feColorMatrix values="0 0 0 0 1 0 0 0 0 1 0 0 0 0 1 0 0 0 0.31 0"/><feBlend in2="BackgroundImageFix" result="effect1_dropShadow_101_15"/><feColorMatrix in="SourceAlpha" values="0 0 0 0 0 0 0 0 0 0 0 0 0 0 0 0 0 0 127 0" result="hardAlpha"/><feOffset dy="-91"/><feGaussianBlur stdDeviation="35"/><feComposite in2="hardAlpha" operator="out"/><feColorMatrix values="0 0 0 0 1 0 0 0 0 1 0 0 0 0 1 0 0 0 0.51 0"/><feBlend in2="effect1_dropShadow_101_15" result="effect2_dropShadow_101_15"/><feColorMatrix in="SourceAlpha" values="0 0 0 0 0 0 0 0 0 0 0 0 0 0 0 0 0 0 127 0" result="hardAlpha"/><feOffset dy="-35"/><feGaussianBlur stdDeviation="20.5"/><feComposite in2="hardAlpha" operator="out"/><feColorMatrix values="0 0 0 0 1 0 0 0 0 1 0 0 0 0 1 0 0 0 0.41 0"/><feBlend in2="effect2_dropShadow_101_15" result="effect3_dropShadow_101_15"/><feColorMatrix in="SourceAlpha" values="0 0 0 0 0 0 0 0 0 0 0 0 0 0 0 0 0 0 127 0" result="hardAlpha"/><feOffset/><feGaussianBlur stdDeviation="15"/><feComposite in2="hardAlpha" operator="out"/><feColorMatrix values="0 0 0 0 1 0 0 0 0 1 0 0 0 0 1 0 0 0 0.58 0"/><feBlend in2="effect3_dropShadow_101_15" result="effect4_dropShadow_101_15"/><feBlend in="SourceGraphic" in2="effect4_dropShadow_101_15" result="shape"/></filter></defs></svg>