<svg width="383" height="341" fill="none" xmlns="http://www.w3.org/2000/svg"><g filter="url(#a)" fill="#fff"><path fill-rule="evenodd" clip-rule="evenodd" d="M140.1 272.2c8 2.5 13 6.4 13 10.5 0 4-5 8-13 10.4 2 8 1.1 14.4-2.4 16.5-.9.5-1.8.7-3 .7-3.4 0-8-2.4-12.6-6.7-4.6 4.3-9.1 6.8-12.6 6.8-1 0-2-.3-2.9-.8-3.5-2-4.4-8.4-2.5-16.5-8-2.4-13.1-6.3-13.1-10.4 0-4.1 5.1-8 13-10.4-1.8-8-1-14.5 2.5-16.5.9-.5 1.8-.7 2.9-.7 3.5 0 8 2.4 12.7 6.7 4.6-4.3 9.1-6.8 12.6-6.8 1 0 2 .2 2.8.7 3.6 2 4.4 8.5 2.6 16.5Zm-5.4-14.4c-2.6 0-6.5 2.1-10.6 6 1.8 1.8 3.5 4 5.2 6.3 2.9.3 5.6.8 8 1.4.4-1.3.6-2.5.7-3.7.6-4.9-.1-8.6-1.9-9.6a3 3 0 0 0-1.4-.4Zm-14.7 6c-4-3.8-8-6-10.6-6-.6 0-1 .2-1.5.4-1.7 1-2.4 4.8-1.8 9.6.1 1.2.4 2.4.7 3.7 2.4-.6 5.1-1 8-1.4 1.7-2.3 3.5-4.5 5.2-6.3Zm15 15.4a57 57 0 0 0 1.7-5l-5.2-1a70 70 0 0 1 3.5 6Zm-4.1 8.5-3 4.9a65.8 65.8 0 0 1-11.5 0 70 70 0 0 1-5.7-9.9 65.6 65.6 0 0 1 5.7-9.9 65.8 65.8 0 0 1 11.4 0 70 70 0 0 1 5.7 9.9l-2.6 5Zm5.8 3.4c-.5-1.6-1-3.3-1.7-5a72.4 72.4 0 0 1-3.5 6c1.8-.2 3.5-.6 5.2-1Zm-14.6 8.5a52.2 52.2 0 0 1-3.5-4 79.5 79.5 0 0 0 7 0 49.3 49.3 0 0 1-3.5 4Zm-14.6-8.5c1.6.4 3.4.8 5.2 1a84.1 84.1 0 0 1-3.5-6c-.7 1.7-1.2 3.4-1.7 5Zm14.5-25.3c1.2 1.2 2.4 2.5 3.6 4a78 78 0 0 0-7 0c1.1-1.5 2.3-2.8 3.4-4Zm-11.2 10.4 1.9-3-5.3 1c.5 1.7 1.1 3.4 1.8 5l1.6-3Zm-9.6 12.9c-4.5-2-7.4-4.4-7.4-6.4s3-4.5 7.4-6.4c1-.5 2.3-1 3.5-1.3.7 2.5 1.7 5 2.9 7.7a59.9 59.9 0 0 0-2.9 7.7l-3.5-1.3Zm5 8.5c-.7 4.9 0 8.6 1.8 9.6.4.2.9.3 1.4.3 2.7 0 6.6-2 10.7-5.9-1.8-1.9-3.6-4-5.3-6.3-2.8-.3-5.5-.8-8-1.4l-.7 3.7Zm31.9 0c.6 4.8-.2 8.6-1.9 9.6-.4.2-.9.3-1.4.3-2.7 0-6.5-2.1-10.7-6a60 60 0 0 0 5.3-6.2c2.8-.3 5.5-.8 8-1.4l.7 3.6Zm1.3-7.2c1.3-.4 2.5-.8 3.5-1.3 4.5-1.9 7.4-4.4 7.4-6.4s-2.9-4.5-7.3-6.4c-1.2-.5-2.3-1-3.6-1.3a60 60 0 0 1-2.8 7.7c1.2 2.6 2.1 5.2 2.8 7.7Z"/><circle cx="122.1" cy="282.7" r="5.8"/><path d="M174.2 299.8v-32h12c2.4 0 4.4.5 6.1 1.4 1.7.8 3 2 3.8 3.5.8 1.6 1.3 3.4 1.3 5.4 0 2-.5 3.8-1.3 5.3a8.6 8.6 0 0 1-3.8 3.5c-1.7.8-3.8 1.2-6.2 1.2h-8.6v-4.8h7.8a9 9 0 0 0 3.5-.6c1-.4 1.6-1 2-1.7.5-.8.7-1.8.7-3 0-1-.2-2-.7-2.8a4.3 4.3 0 0 0-2-1.8c-1-.5-2.1-.7-3.6-.7H180v27h-5.7Zm16.4-14.5 8 14.5H192l-7.8-14.5h6.3ZM212.7 300.3c-2.4 0-4.5-.5-6.2-1.5-1.7-1-3-2.5-4-4.3-1-1.9-1.4-4-1.4-6.5s.4-4.7 1.4-6.5a10.6 10.6 0 0 1 10-6c1.4 0 2.8.3 4 .8 1.4.4 2.6 1.2 3.6 2.1 1 1 1.8 2.3 2.4 3.8.6 1.5.8 3.3.8 5.4v1.8h-19.6v-3.8H218c0-1.1-.2-2-.7-3a5.1 5.1 0 0 0-1.9-2c-.8-.4-1.7-.7-2.8-.7-1.2 0-2.2.3-3 .9-1 .5-1.6 1.3-2 2.2-.6.9-.8 1.8-.8 3v3.2c0 1.4.2 2.6.7 3.6.5 1 1.3 1.8 2.2 2.3.9.5 2 .8 3.2.8.8 0 1.5-.1 2.2-.4a5 5 0 0 0 1.7-1c.5-.5.9-1 1.1-1.7l5.3.6c-.3 1.4-1 2.6-1.9 3.6-1 1-2 1.8-3.5 2.4-1.5.6-3.1.9-5 .9ZM235 300.3a10 10 0 0 1-4-.8 6.7 6.7 0 0 1-3-2.5c-.7-1-1-2.4-1-4 0-1.3.2-2.4.7-3.3.5-.9 1.2-1.6 2-2 1-.6 2-1 3-1.3 1-.3 2.2-.5 3.4-.6l3.4-.4a5 5 0 0 0 1.9-.5c.4-.3.6-.7.6-1.2v-.1c0-1.2-.3-2.1-1-2.8-.7-.6-1.7-1-3-1-1.4 0-2.5.4-3.3 1-.8.6-1.4 1.3-1.7 2.1l-5.2-.7a8.4 8.4 0 0 1 5.5-5.9 15 15 0 0 1 8-.3c1.2.2 2.3.7 3.2 1.3 1 .6 1.7 1.4 2.3 2.5.6 1 .8 2.4.8 4v16h-5.4v-3.3h-.2a6.9 6.9 0 0 1-3.7 3.3c-1 .3-2 .5-3.3.5Zm1.5-4.2c1.1 0 2-.2 3-.6a5 5 0 0 0 1.8-1.8c.5-.8.7-1.6.7-2.5v-2.8l-.9.4-1.4.3a43 43 0 0 1-2.9.5c-.8 0-1.5.3-2.2.5-.7.3-1.2.6-1.6 1.1-.4.5-.6 1-.6 1.8 0 1 .4 1.8 1.2 2.3a5 5 0 0 0 2.9.8ZM263.8 300.3c-2.4 0-4.5-.6-6.2-1.6-1.7-1-3-2.5-4-4.4-.9-1.8-1.3-4-1.3-6.4 0-2.4.5-4.6 1.4-6.4 1-1.9 2.2-3.3 4-4.4 1.7-1 3.7-1.6 6-1.6 2 0 3.7.4 5.2 1.1a8.8 8.8 0 0 1 5.1 7.5h-5.4a5.2 5.2 0 0 0-1.5-2.8 4.5 4.5 0 0 0-3.3-1.2c-1.1 0-2.2.3-3 1a6 6 0 0 0-2 2.6c-.6 1.1-.8 2.5-.8 4.1 0 1.7.2 3 .7 4.2.5 1.2 1.2 2.1 2 2.7 1 .7 2 1 3.1 1 .8 0 1.6-.2 2.2-.5.7-.3 1.3-.8 1.7-1.4.4-.6.8-1.3 1-2.2h5.3a8.9 8.9 0 0 1-5 7.6c-1.5.7-3.2 1-5.2 1ZM290.6 275.9v4.3h-13.8V276h13.8Zm-10.4-5.8h5.7v22.5c0 .8 0 1.3.3 1.7.3.4.6.7 1 .8.3.2.8.3 1.2.3a5.5 5.5 0 0 0 1.7-.3l1 4.5a12.6 12.6 0 0 1-3.4.5c-1.4 0-2.7-.2-3.8-.6a6 6 0 0 1-2.7-2.2c-.7-1-1-2.3-1-3.8v-23.4Z"/></g><defs><filter id="a" x="0" y="0" width="382" height="340.4" filterUnits="userSpaceOnUse" color-interpolation-filters="sRGB"><feFlood flood-opacity="0" result="BackgroundImageFix"/><feColorMatrix in="SourceAlpha" values="0 0 0 0 0 0 0 0 0 0 0 0 0 0 0 0 0 0 127 0" result="hardAlpha"/><feOffset dy="-164"/><feGaussianBlur stdDeviation="45.5"/><feComposite in2="hardAlpha" operator="out"/><feColorMatrix values="0 0 0 0 1 0 0 0 0 1 0 0 0 0 1 0 0 0 0.31 0"/><feBlend in2="BackgroundImageFix" result="effect1_dropShadow_101_34"/><feColorMatrix in="SourceAlpha" values="0 0 0 0 0 0 0 0 0 0 0 0 0 0 0 0 0 0 127 0" result="hardAlpha"/><feOffset dy="-91"/><feGaussianBlur stdDeviation="35"/><feComposite in2="hardAlpha" operator="out"/><feColorMatrix values="0 0 0 0 1 0 0 0 0 1 0 0 0 0 1 0 0 0 0.51 0"/><feBlend in2="effect1_dropShadow_101_34" result="effect2_dropShadow_101_34"/><feColorMatrix in="SourceAlpha" values="0 0 0 0 0 0 0 0 0 0 0 0 0 0 0 0 0 0 127 0" result="hardAlpha"/><feOffset dy="-35"/><feGaussianBlur stdDeviation="20.5"/><feComposite in2="hardAlpha" operator="out"/><feColorMatrix values="0 0 0 0 1 0 0 0 0 1 0 0 0 0 1 0 0 0 0.41 0"/><feBlend in2="effect2_dropShadow_101_34" result="effect3_dropShadow_101_34"/><feColorMatrix in="SourceAlpha" values="0 0 0 0 0 0 0 0 0 0 0 0 0 0 0 0 0 0 127 0" result="hardAlpha"/><feOffset/><feGaussianBlur stdDeviation="15"/><feComposite in2="hardAlpha" operator="out"/><feColorMatrix values="0 0 0 0 1 0 0 0 0 1 0 0 0 0 1 0 0 0 0.58 0"/><feBlend in2="effect3_dropShadow_101_34" result="effect4_dropShadow_101_34"/><feBlend in="SourceGraphic" in2="effect4_dropShadow_101_34" result="shape"/></filter></defs></svg>