<svg width="362" height="351" fill="none" xmlns="http://www.w3.org/2000/svg"><g filter="url(#a)"><path fill-rule="evenodd" clip-rule="evenodd" d="M138.9 255h28.7l-38.3 65.5L91 255h30l8.3 15 9.6-15Zm-29.3 5.5h-9.2l28.9 49.2 28.7-49.2h-9.2l-19.5 33.8-19.7-33.8Zm65.6 7.3c-.5.4-.8.7-.8 1.2l.1.4 9.6 30.8c.3.9 1 1.3 2.4 1.3 1.3 0 2.1-.4 2.5-1.3l9.5-30.8V269c0-.5-.3-.9-.8-1.2a3 3 0 0 0-1.6-.5c-.7 0-1.2.3-1.4.9l-8.2 27.5-8.2-27.5c-.2-.6-.7-1-1.5-1a3 3 0 0 0-1.6.5Zm23.7 12.9v12c0 2.4.9 4.5 2.7 6.3a9 9 0 0 0 6.5 2.6 9 9 0 0 0 6.5-2.6 8.4 8.4 0 0 0 2.7-6.3v-12c0-.4-.1-.8-.5-1-.4-.3-.8-.4-1.4-.4-.5 0-1 .1-1.4.4-.3.3-.5.6-.5 1v12c0 1.4-.6 2.7-1.6 3.8a5 5 0 0 1-3.8 1.6 5 5 0 0 1-3.8-1.6 5.3 5.3 0 0 1-1.5-3.8v-12c0-.4-.2-.7-.6-1-.4-.3-.9-.4-1.4-.4-.5 0-1 .1-1.3.4-.4.3-.6.6-.6 1Zm21.6 7v5c0 2.6 1 4.8 3 6.4 1.8 1.7 4.3 2.5 7.4 2.5 2 0 3.8-.3 5.3-1 1.4-.8 2-1.6 2-2.3 0-.4 0-.8-.4-1.1-.3-.4-.7-.6-1.1-.6-.3 0-.7.1-1.1.4l-1.9 1c-.7.2-1.6.4-2.7.4-2 0-3.5-.5-4.8-1.5a5 5 0 0 1-1.8-4.1v-1.4h10.2l1.6-.1c.4 0 .8-.2 1.3-.4.4-.3.8-.7 1-1.2.2-.5.3-1.3.3-2.2 0-2.4-.9-4.4-2.7-6a9 9 0 0 0-6.3-2.5c-2.5 0-4.7.9-6.5 2.6a8.2 8.2 0 0 0-2.8 6.2Zm12.5 1h-8.6v-1.6c0-1.4.5-2.6 1.6-3.6 1-1 2.3-1.4 3.8-1.4a5 5 0 0 1 3.8 1.5 5 5 0 0 1 1.5 3.7c0 .6-.1 1-.4 1.2-.3.2-.8.3-1.7.3Zm8.5 8.7c-.5.5-.7 1-.7 1.7s.2 1.2.7 1.7c.4.5 1 .7 1.7.7.6 0 1.2-.2 1.7-.7.4-.5.7-1 .7-1.7s-.3-1.2-.7-1.7c-.5-.5-1-.7-1.7-.7s-1.3.2-1.7.7Zm3.2 11.6c-.3.3-.5.7-.5 1.2 0 1.1.7 1.7 2 1.7 2.2 0 3.8-.8 4.8-2.4 1.1-1.6 1.6-3.7 1.6-6.4v-22.5c0-.4-.2-.7-.5-1-.4-.2-.9-.3-1.4-.3-.6 0-1 .1-1.4.4-.4.2-.6.5-.6 1V303a11 11 0 0 1-.5 4c-.4 1-1.2 1.4-2.4 1.4-.4 0-.8.1-1.1.5Zm4.2-39.5a2 2 0 0 0 0 3.1c.5.4 1.1.7 1.8.7.6 0 1.2-.3 1.6-.7.5-.5.8-1 .8-1.6a2 2 0 0 0-.8-1.5c-.4-.4-1-.6-1.6-.6-.7 0-1.3.2-1.8.6Zm7 27.4a2 2 0 0 0-.4 1.2c0 .8.8 1.6 2.3 2.4 1.5.7 3.3 1.1 5.4 1.1 2.5 0 4.4-.5 5.7-1.6 1.4-1.2 2.1-2.7 2.1-4.6a5.9 5.9 0 0 0-4-5.8 34 34 0 0 0-3.4-1 9.6 9.6 0 0 1-2.9-1.2 2.3 2.3 0 0 1-1.2-2 3 3 0 0 1 1.1-2.3c.7-.7 1.8-1 3.2-1 1 0 2.1.2 3.2.7l1.8.7c.4 0 .8-.3 1.1-.7.3-.5.4-1 .4-1.3 0-.6-.6-1.2-2-1.7a13 13 0 0 0-4.5-.8c-2.6 0-4.6.7-5.8 2a6.3 6.3 0 0 0-2 4.5 5 5 0 0 0 1.3 3.4c.7.9 1.7 1.5 2.8 1.9l3.4 1c1 .3 2 .8 2.8 1.4a3 3 0 0 1 1.2 2.4c0 .8-.4 1.5-1 2-.8.6-1.9 1-3.4 1a8.2 8.2 0 0 1-5.1-1.7c-.5-.4-.9-.6-1.1-.6-.4 0-.7.2-1 .6Z" fill="#fff"/></g><defs><filter id="a" x="0" y="0" width="362" height="350.5" filterUnits="userSpaceOnUse" color-interpolation-filters="sRGB"><feFlood flood-opacity="0" result="BackgroundImageFix"/><feColorMatrix in="SourceAlpha" values="0 0 0 0 0 0 0 0 0 0 0 0 0 0 0 0 0 0 127 0" result="hardAlpha"/><feOffset dy="-164"/><feGaussianBlur stdDeviation="45.5"/><feComposite in2="hardAlpha" operator="out"/><feColorMatrix values="0 0 0 0 1 0 0 0 0 1 0 0 0 0 1 0 0 0 0.31 0"/><feBlend in2="BackgroundImageFix" result="effect1_dropShadow_101_74"/><feColorMatrix in="SourceAlpha" values="0 0 0 0 0 0 0 0 0 0 0 0 0 0 0 0 0 0 127 0" result="hardAlpha"/><feOffset dy="-91"/><feGaussianBlur stdDeviation="35"/><feComposite in2="hardAlpha" operator="out"/><feColorMatrix values="0 0 0 0 1 0 0 0 0 1 0 0 0 0 1 0 0 0 0.51 0"/><feBlend in2="effect1_dropShadow_101_74" result="effect2_dropShadow_101_74"/><feColorMatrix in="SourceAlpha" values="0 0 0 0 0 0 0 0 0 0 0 0 0 0 0 0 0 0 127 0" result="hardAlpha"/><feOffset dy="-35"/><feGaussianBlur stdDeviation="20.5"/><feComposite in2="hardAlpha" operator="out"/><feColorMatrix values="0 0 0 0 1 0 0 0 0 1 0 0 0 0 1 0 0 0 0.41 0"/><feBlend in2="effect2_dropShadow_101_74" result="effect3_dropShadow_101_74"/><feColorMatrix in="SourceAlpha" values="0 0 0 0 0 0 0 0 0 0 0 0 0 0 0 0 0 0 127 0" result="hardAlpha"/><feOffset/><feGaussianBlur stdDeviation="15"/><feComposite in2="hardAlpha" operator="out"/><feColorMatrix values="0 0 0 0 1 0 0 0 0 1 0 0 0 0 1 0 0 0 0.58 0"/><feBlend in2="effect3_dropShadow_101_74" result="effect4_dropShadow_101_74"/><feBlend in="SourceGraphic" in2="effect4_dropShadow_101_74" result="shape"/></filter></defs></svg>